<svg xmlns="http://www.w3.org/2000/svg" viewBox="0 0 1920 1080">
  <!-- Background -->
  <rect width="1920" height="1080" fill="#1a1b26"/>

  <!-- Subtle Grid Pattern -->
  <pattern id="grid" width="40" height="40" patternUnits="userSpaceOnUse">
    <path d="M 40 0 L 0 0 0 40" fill="none" stroke="#24283b" stroke-width="1"/>
  </pattern>
  <rect width="1920" height="1080" fill="url(#grid)"/>

  <!-- Abstract Geometric Elements -->
  <!-- Large hexagons -->
  <polygon points="300,200 375,150 450,200 450,300 375,350 300,300" fill="#414868" fill-opacity="0.2" stroke="#7aa2f7" stroke-width="1.5"/>
  <polygon points="1500,800 1575,750 1650,800 1650,900 1575,950 1500,900" fill="#414868" fill-opacity="0.2" stroke="#7aa2f7" stroke-width="1.5"/>
  <polygon points="900,400 975,350 1050,400 1050,500 975,550 900,500" fill="#414868" fill-opacity="0.2" stroke="#7aa2f7" stroke-width="1.5"/>

  <!-- Circles -->
  <circle cx="250" cy="850" r="100" fill="none" stroke="#bb9af7" stroke-width="1.5" stroke-opacity="0.3"/>
  <circle cx="250" cy="850" r="60" fill="none" stroke="#bb9af7" stroke-width="1" stroke-opacity="0.4"/>

  <circle cx="1650" cy="250" r="120" fill="none" stroke="#bb9af7" stroke-width="1.5" stroke-opacity="0.3"/>
  <circle cx="1650" cy="250" r="80" fill="none" stroke="#bb9af7" stroke-width="1" stroke-opacity="0.4"/>

  <!-- Triangles -->
  <polygon points="1200,600 1300,700 1100,700" fill="none" stroke="#7dcfff" stroke-width="1.5" stroke-opacity="0.4"/>
  <polygon points="500,400 600,500 400,500" fill="none" stroke="#7dcfff" stroke-width="1.5" stroke-opacity="0.4"/>

  <!-- Small decorative elements -->
  <!-- Dots pattern -->
  <g fill="#565f89" opacity="0.5">
    <circle cx="100" cy="100" r="2"/>
    <circle cx="140" cy="100" r="2"/>
    <circle cx="180" cy="100" r="2"/>
    <circle cx="220" cy="100" r="2"/>
    <circle cx="100" cy="140" r="2"/>
    <circle cx="140" cy="140" r="2"/>
    <circle cx="180" cy="140" r="2"/>
    <circle cx="220" cy="140" r="2"/>

    <circle cx="1700" cy="900" r="2"/>
    <circle cx="1740" cy="900" r="2"/>
    <circle cx="1780" cy="900" r="2"/>
    <circle cx="1820" cy="900" r="2"/>
    <circle cx="1700" cy="940" r="2"/>
    <circle cx="1740" cy="940" r="2"/>
    <circle cx="1780" cy="940" r="2"/>
    <circle cx="1820" cy="940" r="2"/>
  </g>

  <!-- Horizontal lines -->
  <line x1="0" y1="300" x2="1920" y2="300" stroke="#565f89" stroke-width="1" stroke-opacity="0.2"/>
  <line x1="0" y1="600" x2="1920" y2="600" stroke="#565f89" stroke-width="1" stroke-opacity="0.2"/>
  <line x1="0" y1="900" x2="1920" y2="900" stroke="#565f89" stroke-width="1" stroke-opacity="0.2"/>

  <!-- Vertical lines -->
  <line x1="480" y1="0" x2="480" y2="1080" stroke="#565f89" stroke-width="1" stroke-opacity="0.2"/>
  <line x1="960" y1="0" x2="960" y2="1080" stroke="#565f89" stroke-width="1" stroke-opacity="0.2"/>
  <line x1="1440" y1="0" x2="1440" y2="1080" stroke="#565f89" stroke-width="1" stroke-opacity="0.2"/>

  <!-- Decorative thin lines -->
  <path d="M 0,200 C 300,250 600,150 900,200 S 1400,250 1920,150" fill="none" stroke="#7aa2f7" stroke-width="1" stroke-opacity="0.3"/>
  <path d="M 0,700 C 300,750 600,650 900,700 S 1400,750 1920,650" fill="none" stroke="#7aa2f7" stroke-width="1" stroke-opacity="0.3"/>

  <!-- Corner accent -->
  <path d="M 0,0 L 100,0 L 0,100 Z" fill="#bb9af7" fill-opacity="0.2"/>
  <path d="M 1920,0 L 1820,0 L 1920,100 Z" fill="#bb9af7" fill-opacity="0.2"/>
  <path d="M 0,1080 L 100,1080 L 0,980 Z" fill="#bb9af7" fill-opacity="0.2"/>
  <path d="M 1920,1080 L 1820,1080 L 1920,980 Z" fill="#bb9af7" fill-opacity="0.2"/>
</svg>
